<svg width="40" height="33" viewBox="0 0 40 33" fill="none" xmlns="http://www.w3.org/2000/svg">
<path d="M40 10.875C40 7.009 36.4183 3.875 32 3.875C30.6663 3.875 29.4114 4.165 28.3063 4.669C25.9269 1.842 22.1063 0 17.7863 0C11.9211 0 6.95771 3.38 5.30286 8.036C2.26514 8.653 0 11.03 0 13.875C0 16.854 2.48457 19.32 5.73829 19.788C5.98514 23.737 9.712 26.875 14.2857 26.875C16.7726 26.875 19.0057 25.942 20.5714 24.462C22.1371 25.942 24.3691 26.875 26.8571 26.875C31.592 26.875 35.4286 23.518 35.4286 19.375C35.4286 18.665 35.3086 17.981 35.0983 17.33C37.9771 16.271 40 13.78 40 10.875Z" fill="#BDDDF4"/>
<path d="M4.57142 32.875C6.46497 32.875 8 31.5319 8 29.875C8 28.2181 6.46497 26.875 4.57142 26.875C2.67788 26.875 1.14285 28.2181 1.14285 29.875C1.14285 31.5319 2.67788 32.875 4.57142 32.875Z" fill="#BDDDF4"/>
</svg>
